<?xml version="1.0" encoding="utf-8"?>
<!-- Generator: Adobe Illustrator 19.2.1, SVG Export Plug-In . SVG Version: 6.00 Build 0)  -->
<svg version="1.1" id="Layer_1" xmlns="http://www.w3.org/2000/svg" xmlns:xlink="http://www.w3.org/1999/xlink" x="0px" y="0px"
	 viewBox="0 0 841.9 595.3" style="enable-background:new 0 0 841.9 595.3;" xml:space="preserve">
<style type="text/css">
	.st0{fill:#D30823;}
	.st1{fill:#026AB1;}
	.st2{fill:#FDFDFD;}
</style>
<g>
	<path class="st0" d="M404.8,323.6c0,32.3,0,64.6,0,97c0,10.1-4.2,13.3-13.9,10.7c-62.7-17.1-125.8-18.8-189.3-4.8
		c-5.7,1.3-10.2-1.2-11.2-6.8c-3.1-16.7-5.9-33.4-8.9-50.1c-0.5-3,0.8-3.3,3.2-3.3c4.8,0.1,9.7,0.1,14.5,0c5.8-0.1,9.6-3.9,9.6-9.3
		c0-5.4-3.8-9-9.7-9.2c-6-0.1-12-0.1-18,0c-5.7,0.1-3.8-4.5-4.4-7.2c-0.9-3.7,2.5-2.3,4-2.3c12.7-0.1,25.3-0.1,38-0.1
		c7.1,0,11.3-3.4,11.4-9.1c0.1-5.8-4.3-9.5-11.6-9.5c-14,0-28,0-42,0c-2.8,0-6.3-6-4.7-8.3c1-1.5,2.8-0.8,4.2-0.8
		c15.7,0,31.3,0,47,0c1.2,0,2.3,0,3.5,0c6.5-0.3,10.7-4.1,10.7-9.5c0-5.4-4.3-9.3-10.8-9.3c-17.8-0.1-35.7,0-53.5,0
		c-4.4,0-7-3.2-6.2-7.6c0.4-2.4,2.3-1.4,3.6-1.4c11.5-0.1,23-0.1,34.5,0c4.3,0,7.9-1.1,10.1-5.1c3.3-6.3-1.1-13.5-8.6-13.5
		c-12.8-0.1-25.7-0.2-38.5,0c-3.5,0.1-4.8-0.7-5.4-4.5c-2.6-16.3-5.6-32.5-8.4-48.7c-1.5-8.6,0.3-11.6,8.7-13.8
		c39.7-10.6,80-17.9,121.3-16.8c39,1,75.9,10.9,111.1,27.7c5.9,2.8,9.2,7.6,9.7,14.1c0.3,3.8,0.3,7.7,0.3,11.5
		C404.8,263.7,404.8,293.6,404.8,323.6z"/>
	<path class="st0" d="M437.8,323.9c0-32,0.1-64-0.1-96c-0.1-10.5,4-17.3,13.9-21.8c51.8-23.7,105.7-30.9,161.9-22.6
		c22.6,3.3,44.9,7.6,67,13.7c8.1,2.2,9.9,5.3,8.4,13.5c-1.6,9-3.2,18-4.5,27.1c-0.5,3.4-1.7,4.6-5.4,4.5c-22.3-0.2-44.7-0.2-67-0.1
		c-7.3,0-12.8,4.8-14,11.8c-1.1,6.6,2.7,13,9.2,15.4c2.4,0.9,4.9,0.8,7.4,0.8c19.7,0,39.3,0,59,0.1c1.6,0,5.3-1.6,4.4,2.2
		c-0.7,2.8,1.6,7.9-4.8,7.9c-26.8-0.2-53.6,0-80.5-0.1c-6.8,0-12.1,2.3-14.9,8.7c-4.1,9.4,2.7,19.3,13.3,19.3
		c24.8,0.1,49.7,0,74.5,0.1c1.9,0,4.7-1,5.6,0.7c1.3,2.5-0.2,5.5-0.9,8.2c-0.5,2.1-2.8,1.2-4.4,1.2c-21.8,0-43.7,0-65.5,0.1
		c-8.5,0-13.7,3.3-15.9,9.6c-3.2,9.3,3.3,18.3,13.6,18.5c12.8,0.2,25.7,0,38.5,0c8.2,0,16.3,0.1,24.5-0.1c3-0.1,4,0.5,3.7,3.9
		c-0.5,5-2.1,7.1-7.6,6.7c-8.8-0.6-17.7-0.2-26.5-0.1c-8.5,0.1-14.7,5.7-15,13.5c-0.3,7.8,6,14.2,14.7,14.5c8.2,0.2,16.3,0.1,24.5,0
		c2.5,0,3.9,0,3.2,3.5c-2,10.1-3.5,20.3-5.4,30.5c-1.2,6.3-5.4,8.8-11.7,7.5c-63.3-13.8-126.3-12.2-188.9,4.8
		c-9.9,2.7-14.2-0.6-14.2-10.8C437.8,388.2,437.8,356.1,437.8,323.9z"/>
	<path class="st1" d="M421.7,34.3c8.4-0.2,16,1.1,23.5,3.7C556.6,76.4,668,114.8,779.4,153.2c12.5,4.3,18.6,12.6,18,24.4
		c-0.5,9.9-8,18.4-18.5,20.9c-5.4,1.3-10.5,0.4-15.7-1.4c-63.6-22-127.1-43.9-190.7-65.8c-43.7-15.1-87.5-30-131.2-45.3
		c-13.6-4.8-26.6-4-40,0.7c-63.5,22.1-127.1,43.9-190.7,65.8c-43.1,14.9-86.2,29.7-129.3,44.7c-6.2,2.2-12.3,2.8-18.6,0.5
		c-9.3-3.4-15.3-11.7-15.4-21.2c-0.1-10.5,5.3-18.7,15.2-22.3c12.8-4.7,25.8-9,38.7-13.4c98.8-34.1,197.6-68.2,296.4-102.3
		C405.7,35.7,413.7,34,421.7,34.3z"/>
	<path class="st1" d="M340.5,508c-4.1,9.4-8.3,18.9-12.4,28.3c-0.6,1.4-1.2,2.7-1.9,4.1c-1.4,2.7-3.4,4.5-6.6,4.6
		c-3.7,0-5.8-2.3-7.1-5.3c-4.1-9.1-8.1-18.2-12.1-27.4c-0.6-1.4-1.4-2.9-2.8-4.1c0,11.6,0,23.1,0,34.7c0,2.3,0.1,4.7-0.1,7
		c-0.3,3.7-2.4,5.9-6.1,6c-3.7,0.1-5.9-2-6.4-5.7c-0.1-0.7-0.1-1.3-0.1-2c0-20.8,0-41.6,0-62.5c0-6.5,4.5-10.2,9.9-8.4
		c3.2,1,4.5,3.8,5.7,6.6c5.6,12.6,11.3,25.2,16.9,37.8c0.7,1.5,1.4,3,2.5,5.3c4.4-10.1,8.5-19.5,12.6-28.8c2.3-5.3,4.7-10.7,7-16
		c1.7-3.8,4.4-5.8,8.7-5c4.4,0.8,6,4.2,6,8.1c0.1,21.2,0.1,42.3,0,63.5c0,4.6-2.8,7.3-6.6,7.2c-3.8-0.1-6.1-2.7-6.1-7.5
		c-0.1-13.4,0-26.8,0-40.3C341.1,508.1,340.8,508.1,340.5,508z"/>
	<path class="st1" d="M509.6,530.2c0-14.3,0-28.5,0-42.8c0-2,0-4,0.5-5.9c0.8-3.2,3.1-4.6,6.4-4.4c3.3,0.2,5.1,2.1,5.7,5.2
		c0.2,1.1,0.1,2.3,0.1,3.5c0,20,0,40,0,60c0,4.5-0.5,8.5-5.6,9.8c-5.1,1.3-8.3-1.6-10.6-5.6c-8.3-14-16.5-28.1-24.8-42.2
		c-1.1-1.8-2.2-3.6-4.3-5.3c0,2.9,0,5.7,0,8.6c0,12.2,0,24.3,0,36.5c0,5.4-2.3,8.4-6.4,8.3c-4.1-0.1-6.2-2.8-6.2-8.4
		c0-20.2,0-40.3,0-60.5c0-4.3,0.4-8.3,5.2-9.6c4.9-1.4,8.4,1,10.8,5.2c9,15.2,17.9,30.4,26.9,45.6c0.4,0.7,0.9,1.4,1.3,2.1
		C508.9,530.2,509.3,530.2,509.6,530.2z"/>
	<path class="st0" d="M174.7,555.3c-14.8-0.1-26.5-11.9-26.5-26.8c0-15,11.9-26.9,27-26.7c14.8,0.1,26.6,12,26.5,26.8
		C201.7,543.6,189.9,555.4,174.7,555.3z"/>
	<path class="st1" d="M614.7,504.5c13.1-10.8,29.5-5.8,33.9,10c2.3,8.3,2.3,16.9,0.3,25.2c-3.9,16.5-20,22-34.4,11.2
		c0,6.4,0.1,12.3,0,18.1c-0.1,5.2-2.7,7.6-7.5,7.1c-4.8-0.6-5.5-4-5.5-8c0-16.2,0-32.3,0-48.5c0-3.7,0-7.3,0-11c0-3.6,0-7.2,4.2-8.7
		C609.9,498.6,612.6,500.7,614.7,504.5z M637,527.8c-0.4-3.3-0.4-6.3-1.1-9.2c-1.3-5.5-5-8.2-10.4-8.1c-5.3,0-8.9,2.9-10.2,8.4
		c-1.4,5.9-1.4,11.9,0,17.7c1.3,5.5,4.9,8.4,10.2,8.4c5.3,0,9.1-2.7,10.4-8.2C636.6,533.8,636.7,530.6,637,527.8z"/>
	<path class="st1" d="M567.7,531.9c-4.2,0-8.3,0.2-12.5-0.1c-4.2-0.3-4.4,1.6-3.2,4.8c2.7,7.7,11.5,10.6,20,6.6
		c1.9-0.9,3.7-2.2,5.6-3.2c2.7-1.3,5.3-1,7.1,1.6c1.7,2.5,1.5,5.3-0.7,7.3c-8,7.4-17.7,8.8-27.9,6.7c-9-1.8-14.5-7.8-16.6-16.7
		c-1.9-7.9-1.9-15.9,0.2-23.7c2.8-10.6,11.5-16.5,23.3-16.4c11.6,0.1,19.8,6.2,22.6,16.6c1,3.6,1.4,7.2,1.5,10.8
		c0.1,3.7-1.6,5.6-5.4,5.5C577,531.9,572.3,531.9,567.7,531.9z M562,522.2c3,0,6-0.1,8.9,0c2.5,0.1,3.1-0.9,2.7-3.3
		c-0.7-4.7-4.3-8.3-9.3-8.9c-5.9-0.7-10.6,1.9-12.4,6.9c-1.2,3.4-1.2,5.9,3.6,5.3C557.7,522,559.8,522.2,562,522.2z"/>
	<path class="st1" d="M399.4,531.9c-4.3,0-8.7,0.2-13-0.1c-3.9-0.2-4.1,1.4-3.1,4.4c2.5,7.6,11,10.8,19.4,7.2c1.8-0.8,3.5-2,5.2-2.9
		c3.1-1.7,6.2-2.1,8.4,1.2c2.2,3.3,0.8,6.1-2,8.3c-9.2,7.2-19.6,8.1-30.2,4.5c-10.4-3.5-13.5-12.6-14.4-22.6
		c-0.4-4.5-0.2-9,0.6-13.4c2.4-12.6,10.8-19.7,23.7-19.7c12.7,0,21.2,6.9,23.6,19.2c0.1,0.7,0.3,1.3,0.4,2
		c1.6,13.4-0.9,11.9-10.1,11.8C405.1,531.9,402.3,531.9,399.4,531.9z M394.1,522.2c2.7,0,5.3-0.2,8,0c3.6,0.3,3.7-1.5,3-4.2
		c-1.4-5-5.2-7.9-10.7-7.9c-5.7-0.1-9.5,2.6-11,7.5c-1,3.2-0.9,5.1,3.3,4.7C389.1,522,391.6,522.2,394.1,522.2z"/>
	<path class="st1" d="M707.4,528c0.1,6.6-0.6,13.2,3.4,19.3c1.7,2.6,0.7,5.7-2.1,7.4c-3,1.8-6.5,2-8.6-1c-2.1-3-3.2-2-5.7-0.6
		c-8.6,4.8-17.6,4.8-26.2,0.1c-6-3.3-7.2-9.2-6.7-15.6c0.5-6.4,3.8-10.9,9.7-13.4c6-2.6,12.4-2,18.7-2.1c1.7,0,4.2,1,5-0.9
		c1-2.4,0.2-5-1.5-7c-3.5-4.4-8.4-4.4-13.3-3.8c-2.8,0.4-5.4,1.6-8.1,2.3c-3,0.8-5.9,0.5-7.2-2.7c-1.3-3.2-0.2-6,3-7.5
		c9.8-4.7,19.9-5.3,29.9-0.9c6.4,2.8,9,8.6,9.6,15.3C707.6,520.7,707.4,524.4,707.4,528z M687.4,531.9c-3.3,0.1-6.7-0.1-9.8,1.3
		c-2.6,1.1-3.7,3.2-3.7,5.9c0,2.5,0.9,4.7,3.3,5.6c5.1,2,10.1,1.8,14.8-1.1c3.9-2.4,3.8-6.7,3-10.3c-0.7-3-4-0.9-6.1-1.4
		C688.4,531.8,687.9,531.9,687.4,531.9z"/>
	<path class="st1" d="M117.3,510.3c5.2-9.6,10-18.4,14.8-27.1c0.8-1.5,1.5-3,2.5-4.3c2.3-2.9,5.3-3.5,8.4-1.8
		c3.3,1.8,4.2,4.8,2.6,8.1c-2.7,5.5-5.4,11.1-8.9,16.2c-9.7,14-14.9,29.1-12.4,46.3c0.4,2.7-0.1,5.4-2,7.5c-2.2,2.5-5.1,2.5-7.8,1.6
		c-3-1-4.2-3.6-4.3-6.7c-0.1-7.3-0.1-14.7,0-22c0-2.8-0.6-5.2-2-7.6c-6.2-10.9-12.2-21.8-18.3-32.7c-1.6-2.9-2.5-6-0.6-9
		c2.5-4.1,8.7-3.4,11.5,1.3c4.4,7.6,8.5,15.4,12.8,23.2C114.6,505.4,115.7,507.4,117.3,510.3z"/>
	<path class="st1" d="M264.4,527.7c0,6.7,0,13.3,0,20c0,3.3-0.4,6.5-4.1,7.8c-3.4,1.2-6.3,0.4-8.1-2.9c-1.1-2.1-1.9-0.8-3,0
		c-6.5,4.9-13.6,5.4-20.7,2.1c-7.3-3.3-10.2-9.8-10.3-17.5c-0.2-10,0-20-0.1-30c0-4.2,1.6-7.2,6.2-7.5c4.1-0.3,6.8,2.5,6.9,7.4
		c0.2,8.5,0,17,0.1,25.5c0,8.1,3.3,12.4,9.7,12.5c6.4,0.1,10.4-4.5,10.5-12.5c0.1-8.2,0-16.3,0-24.5c0-5.7,2-8.3,6.3-8.4
		c4.4-0.1,6.6,2.7,6.6,8.6C264.5,514.7,264.4,521.2,264.4,527.7z"/>
	<path class="st1" d="M726.6,512.9c0-9,0-18,0-27c0-6,2-8.7,6.4-8.8c4.6-0.1,6.5,2.4,6.6,8.5c0,16.8,0.1,33.7,0,50.5
		c0,4.3,0.2,7.9,5.8,8.7c2.9,0.4,4.3,2.9,4,6c-0.3,3.2-2.3,4.6-5.2,5.2c-10.4,1.9-17.2-3.9-17.6-15c0-0.3,0-0.7,0-1
		C726.6,530.9,726.6,521.9,726.6,512.9z"/>
	<path class="st2" d="M637,527.8c-0.3,2.8-0.4,6-1.1,9c-1.3,5.5-5.1,8.2-10.4,8.2c-5.3,0-9-2.9-10.2-8.4c-1.3-5.9-1.4-11.9,0-17.7
		c1.3-5.5,4.9-8.4,10.2-8.4c5.4,0,9.1,2.7,10.4,8.1C636.6,521.5,636.7,524.5,637,527.8z"/>
	<path class="st2" d="M562,522.2c-2.2,0-4.3-0.2-6.4,0c-4.8,0.6-4.8-1.9-3.6-5.3c1.8-4.9,6.5-7.5,12.4-6.9c5,0.6,8.6,4.2,9.3,8.9
		c0.3,2.3-0.2,3.4-2.7,3.3C568,522.1,565,522.2,562,522.2z"/>
	<path class="st2" d="M394.1,522.2c-2.5,0-5-0.2-7.5,0c-4.2,0.4-4.3-1.6-3.3-4.7c1.6-4.9,5.4-7.5,11-7.5c5.5,0.1,9.3,3,10.7,7.9
		c0.7,2.7,0.6,4.5-3,4.2C399.4,522,396.7,522.2,394.1,522.2z"/>
	<path class="st2" d="M687.4,531.9c0.5,0,1-0.1,1.5,0c2.1,0.6,5.4-1.5,6.1,1.4c0.9,3.6,1,7.9-3,10.3c-4.7,2.9-9.7,3.1-14.8,1.1
		c-2.5-1-3.3-3.2-3.3-5.6c0-2.7,1.1-4.8,3.7-5.9C680.7,531.9,684.1,532,687.4,531.9z"/>
</g>
</svg>
